#!OML:ASF Y:\EmotionMaleHayes\Project 1\Capture day 1\Session 1\Male1.ASF
:FULLY-SPECIFIED
:DEGREES
1
root -34.0558 15.5675 -0.564934 96.7975 79.8899 95.6315
lowerback 15.2535 0.957377 -12.5688
upperback 3.38232 -0.609808 -3.71245
thorax -4.80134 -0.0350402 3.21461
lowerneck -31.4781 -0.599374 -2.02348
upperneck 12.6663 -0.915855 5.13758
head 9.01507 0.146586 2.00144
rclavicle -5.46658e-015 -4.69132e-014
rhumerus -64.3883 17.5189 -98.582
rradius 91.2669
rwrist -20.533
rhand -32.2759 -31.702
rfingers 7.12502
rthumb -5.51511 -61.6102
lclavicle -5.46658e-015 -4.69132e-014
lhumerus -34.4347 -26.5917 90.6737
lradius 93.8358
lwrist 15.0358
lhand -40.1428 -40.8082
lfingers 7.12502
lthumb -13.1054 -11.24
rfemur -15.9735 -6.89771 2.75237
rtibia 59.7152
rfoot 176.799 14.0094
rtoes 17.1985
lfemur -9.90142 1.9002 -36.6174
ltibia 38.1244
lfoot -30.0323 -0.159147
ltoes 10.6101
2
root -33.6455 15.609 -0.579688 96.7769 79.4083 95.7099
lowerback 16.0213 0.988758 -12.4548
upperback 3.05127 -0.729962 -4.25229
thorax -5.57455 -0.0376479 2.59039
lowerneck -30.924 -0.852563 -1.86872
upperneck 12.4371 -1.36193 5.3668
head 8.8715 -0.0336901 1.97981
rclavicle 1.47101e-014 4.85035e-014
rhumerus -67.5745 15.803 -98.7802
rradius 91.4664
rwrist -20.5582
rhand -31.6272 -31.4822
rfingers 7.12502
rthumb -4.88881 -61.4058
lclavicle 1.47101e-014 4.85035e-014
lhumerus -32.1001 -27.2778 90.3038
lradius 94.9154
lwrist 12.6187
lhand -39.839 -41.1627
lfingers 7.12502
lthumb -12.8126 -11.5759
rfemur -19.2296 -7.19148 2.52377
rtibia 59.0186
rfoot 176.797 12.3994
rtoes 14.7342
lfemur -7.19688 2.37952 -37.013
ltibia 36.5495
lfoot -30.7429 -0.265125
ltoes 8.79789
3
root -33.2108 15.6542 -0.602635 95.3162 79.1616 94.0328
lowerback 15.7549 0.915087 -12.8422
upperback 2.88941 -0.871476 -4.25635
thorax -5.57878 -0.0971513 2.82595
lowerneck -30.6877 -0.77682 -1.8987
upperneck 12.534 -1.25202 5.32103
head 8.86482 0.00531056 1.98445
rclavicle 3.97569e-016 2.22639e-014
rhumerus -70.4136 15.311 -98.5818
rradius 91.6747
rwrist -20.9249
rhand -31.0066 -28.9161
rfingers 7.12502
rthumb -4.28949 -58.8527
lclavicle 3.97569e-016 2.22639e-014
lhumerus -29.4083 -26.8946 90.2056
lradius 95.7531
lwrist 10.8451
lhand -39.0292 -43.5482
lfingers 7.12502
lthumb -12.0318 -13.9141
rfemur -22.7593 -7.1533 2.50804
rtibia 58.6384
rfoot 176.462 10.8767
rtoes 13.4504
lfemur -4.62179 2.72589 -37.2471
ltibia 34.509
lfoot -31.2446 -0.705431
ltoes 9.14014
4
root -32.7326 15.7214 -0.612542 98.5626 79.0735 97.4914
lowerback 15.4794 0.520793 -13.0568
upperback 3.1038 -1.33872 -4.08168
thorax -5.11515 -0.352294 3.2233
lowerneck -31.2066 -0.627244 -1.90055
upperneck 12.838 -1.02854 5.16558
head 9.03975 0.0992621 1.97295
rclavicle -1.26228e-014 -8.11041e-014
rhumerus -72.8537 14.8895 -98.1993
rradius 91.8941
rwrist -21.2329
rhand -30.8369 -28.5442
rfingers 7.12502
rthumb -4.12567 -58.484
lclavicle -1.26228e-014 -8.11041e-014
lhumerus -26.5518 -26.6675 90.028
lradius 96.9661
lwrist 8.8569
lhand -39.093 -42.9849
lfingers 7.12502
lthumb -12.0933 -13.3544
rfemur -24.9938 -8.13014 2.96163
rtibia 59.312
rfoot 176.261 10.6038
rtoes 13.2431
lfemur -1.11895 1.96918 -37.1776
ltibia 32.0224
lfoot -31.4255 -1.25536
ltoes 10.2502
5
root -32.2595 15.7839 -0.643794 97.1309 79.0248 95.757
lowerback 14.6013 0.342895 -13.2312
upperback 3.08904 -1.45659 -4.00257
thorax -4.62519 -0.440609 3.41718
lowerneck -31.3652 -0.412756 -1.81951
upperneck 12.9668 -0.736965 4.95548
head 9.09514 0.21503 1.93489
rclavicle -6.36111e-015 -2.14687e-014
rhumerus -75.3589 14.4846 -97.8199
rradius 92.0823
rwrist -21.2977
rhand -31.1798 -26.1401
rfingers 7.12502
rthumb -4.45675 -56.0732
lclavicle -6.36111e-015 -2.14687e-014
lhumerus -24.3848 -26.7695 90.1218
lradius 98.159
lwrist 8.96834
lhand -39.7166 -45.6685
lfingers 7.12502
lthumb -12.6946 -16.0743
rfemur -28.2145 -7.94736 3.11815
rtibia 60.0439
rfoot 175.546 9.33888
rtoes 13.3294
lfemur 1.75283 1.26616 -37.6171
ltibia 29.3103
lfoot -31.2989 -0.695099
ltoes 9.69272
6
root -31.8203 15.8907 -0.631326 99.9771 78.412 99.0472
lowerback 15.2863 0.041539 -14.1954
upperback 3.05626 -2.1098 -3.9222
thorax -4.88803 -0.722574 4.15714
lowerneck -31.2059 -0.126194 -1.53447
upperneck 13.123 -0.418144 4.63446
head 9.11113 0.335352 1.82647
rclavicle 3.37934e-015 -2.14687e-014
rhumerus -77.8422 14.2604 -97.5459
rradius 92.4363
rwrist -20.9366
rhand -30.6531 -26.027
rfingers 7.12502
rthumb -3.94819 -55.9701
lclavicle 3.37934e-015 -2.14687e-014
lhumerus -22.4366 -26.4589 90.0293
lradius 99.2263
lwrist 8.25974
lhand -39.3319 -45.6744
lfingers 7.12502
lthumb -12.3237 -16.0576
rfemur -29.8995 -8.77777 3.03354
rtibia 61.8138
rfoot 174.707 8.1367
rtoes 12.025
lfemur 5.20958 0.656256 -38.1185
ltibia 26.7269
lfoot -30.0064 -1.23412
ltoes 9.30127
